<svg xmlns="http://www.w3.org/2000/svg" viewBox="0 0 370 320" width="370" height="320">
  <defs><clipPath id="frame30"><rect width="370" height="320" rx="0"/></clipPath></defs>
  
  <defs><filter id="dc31" x="-25%" y="-25%" width="150%" height="150%">
      <feMorphology in="SourceAlpha" operator="dilate" radius="6" result="d"/>
      <feFlood flood-color="#fff"/><feComposite in2="d" operator="in" result="white"/>
      <feGaussianBlur in="d" stdDeviation="2.5" result="b"/><feOffset in="b" dy="2.5" result="bo"/>
      <feFlood flood-color="rgba(90,50,60,0.25)"/><feComposite in2="bo" operator="in" result="sh"/>
      <feMerge><feMergeNode in="sh"/><feMergeNode in="white"/><feMergeNode in="SourceGraphic"/></feMerge>
    </filter></defs><g filter="url(#dc31)"><g transform="translate(-55.5 -96.90000000000003) scale(1.85)"><g transform="rotate(0 130 154)"><defs>
      <linearGradient id="eg29" x1="0" y1="0" x2="0" y2="1"><stop offset="0" stop-color="#3f2a2a"/><stop offset=".6" stop-color="#3f2a2a"/><stop offset="1" stop-color="#fff"/></linearGradient>
      <radialGradient id="bg29" cx=".4" cy=".3" r=".8"><stop offset="0" stop-color="#ffffff"/><stop offset=".72" stop-color="#fcf8f7"/><stop offset="1" stop-color="#eee3e0"/></radialGradient>
    </defs>
    <g stroke="#3f2a2a" stroke-width="4.5" stroke-linejoin="round" fill="#3f2a2a">
      <path d="M 250 170 C 270 180, 300 190, 290 140 C 280 100, 250 140, 240 170 Z"/>
      <path d="M 260 150 C 290 160, 320 120, 280 80 C 260 60, 230 110, 250 150 Z"/>
      <path d="M 240 130 C 260 100, 270 70, 240 50 C 210 30, 200 90, 230 120 Z"/>
    </g>
    <g stroke="#3f2a2a" stroke-width="4.5" stroke-linejoin="round" fill="url(#eg29)">
      <path transform="rotate(0 110 108)" d="M 100 105 C 80 50, 95 20, 110 25 C 125 30, 120 90, 115 105 Z"/>
      <path transform="rotate(0 155 104)" d="M 145 100 C 135 45, 160 15, 175 25 C 190 35, 165 85, 160 100 Z"/>
    </g>
    <path d="M 70 190 C 20 180, 30 120, 90 110 C 160 100, 220 105, 260 130 C 290 150, 280 200, 200 210 C 130 220, 90 200, 70 190 Z" fill="url(#bg29)" stroke="#3f2a2a" stroke-width="5.5" stroke-linejoin="round"/>
    <path d="M 74 126 Q 110 112 150 112" stroke="#fff" stroke-width="5" stroke-linecap="round" fill="none"/>
    <g fill="#3f2a2a"><circle cx="245" cy="155" r="4"/><circle cx="230" cy="175" r="4.5"/><circle cx="160" cy="200" r="4.5"/><circle cx="205" cy="195" r="3.5"/></g>
    
    <g transform="translate(130 154) scale(1.3)"><ellipse cx="-36" cy="13" rx="13" ry="7.5" fill="#ffb0b0" opacity="0.9"/><ellipse cx="36" cy="13" rx="13" ry="7.5" fill="#ffb0b0" opacity="0.9"/><path stroke="#3a2626" stroke-width="4" stroke-linecap="round" stroke-linejoin="round" fill="none" d="M -28 2 Q -20 -6 -12 2"/><path stroke="#3a2626" stroke-width="4" stroke-linecap="round" stroke-linejoin="round" fill="none" d="M 12 2 Q 20 -6 28 2"/><path stroke="#3a2626" stroke-width="3.5" stroke-linecap="round" stroke-linejoin="round" fill="none" d="M -6 8 Q 0 13 6 8"/></g></g></g></g>
  <defs><filter id="dc32" x="-25%" y="-25%" width="150%" height="150%">
      <feMorphology in="SourceAlpha" operator="dilate" radius="3.5" result="d"/>
      <feFlood flood-color="#fff"/><feComposite in2="d" operator="in" result="white"/>
      <feGaussianBlur in="d" stdDeviation="2.5" result="b"/><feOffset in="b" dy="2.5" result="bo"/>
      <feFlood flood-color="rgba(90,50,60,0.25)"/><feComposite in2="bo" operator="in" result="sh"/>
      <feMerge><feMergeNode in="sh"/><feMergeNode in="white"/><feMergeNode in="SourceGraphic"/></feMerge>
    </filter></defs><g filter="url(#dc32)"><g transform="translate(52 80) scale(1)"><ellipse cx="0" cy="-8" rx="6" ry="8" transform="rotate(0)" fill="#ffc2d6" stroke="#f472a6" stroke-width="1.8"/><ellipse cx="0" cy="-8" rx="6" ry="8" transform="rotate(72)" fill="#ffc2d6" stroke="#f472a6" stroke-width="1.8"/><ellipse cx="0" cy="-8" rx="6" ry="8" transform="rotate(144)" fill="#ffc2d6" stroke="#f472a6" stroke-width="1.8"/><ellipse cx="0" cy="-8" rx="6" ry="8" transform="rotate(216)" fill="#ffc2d6" stroke="#f472a6" stroke-width="1.8"/><ellipse cx="0" cy="-8" rx="6" ry="8" transform="rotate(288)" fill="#ffc2d6" stroke="#f472a6" stroke-width="1.8"/><circle r="5" fill="#ffd23f" stroke="#e6a700" stroke-width="1.6"/></g><g transform="translate(318 66) scale(1.2)"><ellipse cx="0" cy="-8" rx="6" ry="8" transform="rotate(0)" fill="#ffc2d6" stroke="#f472a6" stroke-width="1.8"/><ellipse cx="0" cy="-8" rx="6" ry="8" transform="rotate(72)" fill="#ffc2d6" stroke="#f472a6" stroke-width="1.8"/><ellipse cx="0" cy="-8" rx="6" ry="8" transform="rotate(144)" fill="#ffc2d6" stroke="#f472a6" stroke-width="1.8"/><ellipse cx="0" cy="-8" rx="6" ry="8" transform="rotate(216)" fill="#ffc2d6" stroke="#f472a6" stroke-width="1.8"/><ellipse cx="0" cy="-8" rx="6" ry="8" transform="rotate(288)" fill="#ffc2d6" stroke="#f472a6" stroke-width="1.8"/><circle r="5" fill="#ffd23f" stroke="#e6a700" stroke-width="1.6"/></g><g transform="translate(338 124) scale(0.7)"><ellipse cx="0" cy="-8" rx="6" ry="8" transform="rotate(0)" fill="#ffc2d6" stroke="#f472a6" stroke-width="1.8"/><ellipse cx="0" cy="-8" rx="6" ry="8" transform="rotate(72)" fill="#ffc2d6" stroke="#f472a6" stroke-width="1.8"/><ellipse cx="0" cy="-8" rx="6" ry="8" transform="rotate(144)" fill="#ffc2d6" stroke="#f472a6" stroke-width="1.8"/><ellipse cx="0" cy="-8" rx="6" ry="8" transform="rotate(216)" fill="#ffc2d6" stroke="#f472a6" stroke-width="1.8"/><ellipse cx="0" cy="-8" rx="6" ry="8" transform="rotate(288)" fill="#ffc2d6" stroke="#f472a6" stroke-width="1.8"/><circle r="5" fill="#ffd23f" stroke="#e6a700" stroke-width="1.6"/></g></g>
</svg>